<svg width="1080" height="1350" viewBox="0 0 1080 1350" fill="none" xmlns="http://www.w3.org/2000/svg">
<path fill-rule="evenodd" clip-rule="evenodd" d="M708.334 974.816C803.164 974.816 845 955.507 845 911.311H844.571C844.571 891.358 836.418 878.485 809.171 859.176C787.502 843.943 778.705 829.354 768.193 794.812L654.912 431.371C641.396 386.316 621.228 374.302 565.017 374.302H434.144C371.497 374.302 348.969 387.818 348.969 424.076C348.969 462.695 367.42 483.506 405.18 490.8L412.475 492.302L314.427 796.958C305.631 824.42 291.042 845.231 264.653 867.758C242.125 885.565 234.831 898.438 234.831 916.031C234.831 955.507 272.591 974.816 350.471 974.816C433.071 974.816 469.33 955.507 469.33 918.605C469.33 899.296 458.817 888.14 441.224 876.769C428.351 867.972 419.555 859.176 419.555 846.303C419.555 839.009 421.271 831.714 422.773 826.994L433.286 795.67C438.221 780.438 446.159 774.001 464.61 774.001H576.388C595.697 774.001 605.352 782.798 610.93 798.889L617.367 820.558C619.941 826.994 621.443 835.791 621.443 843.085C621.443 856.816 611.788 868.831 598.057 877.627C578.105 891.143 571.668 899.296 571.668 920.965C571.668 958.725 613.505 974.816 708.334 974.816ZM593.761 637.535C600.198 629.596 604.703 619.513 606.634 608.571C608.136 599.345 607.278 590.12 604.274 581.538C601.27 572.956 596.336 565.662 589.899 560.083C583.463 554.505 575.954 551.287 568.016 550.429C560.507 550 552.997 551.931 546.561 556.436C539.696 561.371 533.903 568.022 529.612 575.96C525.321 567.807 519.528 561.156 512.663 556.436C506.226 551.931 498.717 549.785 491.208 550.429C483.27 551.287 475.761 554.72 469.324 560.083C462.888 565.447 457.954 572.956 454.95 581.538C451.946 590.12 451.088 599.56 452.59 608.571C454.521 619.298 459.026 629.382 465.463 637.535C470.45 644.317 477.477 649.616 485.51 655.673C486.117 656.13 486.729 656.591 487.346 657.058L487.5 657.172C500.762 667.012 515.5 677.946 527.896 697.822C528.325 698.466 528.968 698.895 529.612 698.895C530.256 698.895 530.899 698.466 531.328 697.822C543.353 678.541 557.782 667.674 570.549 658.059C570.994 657.724 571.437 657.391 571.877 657.058C572.146 656.856 572.413 656.654 572.678 656.453C581.13 650.066 588.353 644.607 593.761 637.535Z" fill="#006EAD"/>
</svg>
